# xmcd
#
# Track frame offsets:
# 150
# 21457
# 33544
# 46219
# 63944
# 75588
# 99412
# 113315
# 126156
# 139083
# 150210
# 163163
# 175941
# 200855
# 210485
# 220846
# 238082
# 261836
# 274479
# 289789
#
# Disc length: 4128 seconds
#
#
# Revision: 0
# Processed by: cddbd v1.5PL3 Copyright (c) Steve Scherf et al.
# Submitted via: FreeRIP 2.51 
#
DISCID=21101e14
DTITLE=James Brown - James Brown - 20 Best
DYEAR=1991
DGENRE=Pop
TTITLE0=Living in America
TTITLE1=I'm a Soul Man
TTITLE2=Georgia on My Mind
TTITLE3=Gonna Have a Funky Good Time
TTITLE4=I Got The Feelin'
TTITLE5=Sexmachine
TTITLE6=The Bells
TTITLE7=I Don't Mind
TTITLE8=I Love You, Yes I do
TTITLE9=And I do Just What i Want
TTITLE10=So Long
TTITLE11=I Don't Have To Go
TTITLE12=Try Me
TTITLE13=Cold Sweat
TTITLE14=Papa's Got a Brand New Bag
TTITLE15=Please, Please, Please
TTITLE16=Doing It To Death
TTITLE17=I Feel Good
TTITLE18=Baby You've Got What it Takes
TTITLE19=Papa Don't Take no Mess
EXTD=
EXTT0=
EXTT1=
EXTT2=
EXTT3=
EXTT4=
EXTT5=
EXTT6=
EXTT7=
EXTT8=
EXTT9=
EXTT10=
EXTT11=
EXTT12=
EXTT13=
EXTT14=
EXTT15=
EXTT16=
EXTT17=
EXTT18=
EXTT19=
PLAYORDER=
